PathFileType	3	(X/Y/Z)	D:\minhoCalibration\240510\subject3_KPNP\preferred\preferred06.trc
DataRate	CameraRate	NumFrames	NumMarkers	Units	OrigDataRate	OrigDataStartFrame	OrigNumFrames
200.0	200.0	21	10	mm	200.0	497	140	
Frame#	Time	Left_Ankle_Outer1			Left_Ankle_Inner1			Left_Knee_Outer1			Left_Knee_Inner1			Left_Wrist1			Right_Wrist1			Right_Knee_Inner1			Right_Knee_Outer1			Right_Ankle_Inner1			Right_Ankle_Outer1			
		X1	Y1	Z1	X2	Y2	Z2	X3	Y3	Z3	X4	Y4	Z4	X5	Y5	Z5	X6	Y6	Z6	X7	Y7	Z7	X8	Y8	Z8	X9	Y9	Z9	X10	Y10	Z10	
497	2.475	-301.05762	126.23057	-511.64365	-353.78717	146.11588	-493.50711	-136.49477	518.98389	-413.69751	-206.08153	534.92493	-338.4393	-156.64677	874.55878	-647.77637	-319.93756	1133.8552	-466.55945	-223.07773	1039.2356	-75.887619	-275.63748	1126.9617	-123.38766	-328.07132	1079.0233	329.5993	-348.73624	1175.9034	311.28369
498	2.48	-300.58426	125.89625	-511.02322	-353.29428	145.78214	-494.07675	-138.80185	519.17944	-409.52475	-209.09314	534.89191	-334.99832	-154.73251	875.33728	-641.64044	-325.1207	1133.9325	-464.83167	-220.19167	1046.0037	-77.941101	-266.63498	1126.6108	-121.72162	-320.90704	1071.7593	324.23441	-350.84998	1167.0792	312.30823
499	2.485	-300.80502	124.76519	-510.33603	-352.65765	145.18192	-494.74368	-141.1956	519.62347	-405.11969	-213.13786	534.78479	-331.97568	-153.03488	876.12848	-636.20264	-330.24805	1133.8971	-463.1871	-222.20308	1048.4554	-77.34642	-260.19095	1123.9767	-121.84293	-318.87387	1064.4683	327.4024	-350.60403	1158.8201	314.4942
500	2.49	-299.95093	124.3552	-510.19412	-352.08316	144.52203	-495.57498	-143.80121	519.88177	-400.53827	-217.93729	534.66418	-331.23999	-151.54343	876.95471	-631.73151	-335.40759	1133.7444	-461.52545	-226.55838	1045.7238	-74.904274	-257.99377	1119.478	-124.58669	-314.39444	1057.6112	327.99094	-348.83975	1151.2793	316.51981
501	2.495	-298.84976	124.17302	-510.40942	-351.62903	143.88106	-496.37488	-146.4597	520.2594	-396.16995	-222.97168	535.30023	-329.33652	-150.13589	877.52618	-628.02716	-340.64014	1133.3362	-459.87262	-230.52983	1040.6827	-73.914673	-262.21039	1115.4724	-125.8232	-310.83661	1052.0256	330.38776	-347.50546	1144.9375	319.24228
502	2.5	-298.12961	123.9258	-510.28387	-351.25354	143.42099	-497.08429	-149.17346	520.83875	-392.1268	-228.20605	535.80475	-328.39935	-148.65977	877.80231	-624.76111	-345.73492	1132.5063	-458.39365	-233.94557	1035.427	-74.30365	-270.06671	1113.7063	-125.11563	-304.93063	1045.3409	329.93707	-346.00745	1138.0765	321.94678
503	2.505	-297.67215	123.93284	-510.05768	-350.91208	143.11067	-497.55246	-151.6519	521.47974	-388.50253	-232.82573	536.21124	-327.40103	-146.92256	878.00922	-621.80731	-351.5835	1131.2808	-457.12115	-237.1953	1030.5544	-75.067032	-279.80902	1112.5641	-122.22231	-298.38745	1038.2631	329.57312	-344.91101	1130.1586	323.99042
504	2.51	-297.42276	124.08993	-509.78683	-350.76337	142.99214	-497.99435	-154.17067	522.06091	-385.16119	-237.69952	536.47357	-327.91043	-145.00554	878.37665	-618.79071	-357.70697	1129.645	-456.27463	-240.54985	1026.1835	-75.497604	-290.38904	1109.2208	-118.32275	-291.75879	1030.8986	329.4884	-345.21124	1120.7161	326.23688
505	2.515	-297.40582	124.17986	-509.49664	-350.87479	142.87001	-498.27725	-156.45876	522.58594	-382.42352	-241.9118	536.87585	-327.90744	-142.63139	879.00024	-615.83484	-364.33563	1127.7969	-455.11453	-244.24709	1021.985	-75.662422	-300.84518	1103.5574	-114.18186	-289.94781	1028.8961	344.86105	-345.56177	1109.6854	328.4649
506	2.52	-297.47504	124.30899	-509.33136	-351.07535	142.82211	-498.54059	-158.80486	523.3266	-379.99838	-245.57379	537.2793	-328.25177	-140.64229	879.97327	-612.55469	-364.96146	1124.2192	-453.59363	-247.68423	1018.127	-75.967926	-311.67526	1096.0992	-109.52225	-283.20157	1019.368	339.99234	-345.91171	1097.3124	330.86017
507	2.525	-297.55289	124.42885	-509.2767	-351.47702	142.67667	-498.79816	-160.57315	523.69562	-378.59918	-249.05394	537.84003	-328.72778	-138.70726	881.23059	-609.22577	-369.89752	1122.4545	-452.36154	-251.71436	1013.449	-75.849991	-321.32642	1087.6185	-105.92693	-277.98422	1011.7954	341.78839	-346.37595	1083.843	333.09567
508	2.53	-297.75925	124.5777	-509.31918	-351.91299	142.68823	-499.17471	-162.4005	524.11731	-377.65375	-252.06787	538.40326	-329.33139	-136.79828	882.8551	-606.14801	-375.02222	1120.7437	-451.73297	-256.13083	1008.5543	-75.506546	-331.25861	1078.6038	-103.47947	-273.10626	1004.9032	347.97726	-347.40494	1069.4678	335.01987
509	2.535	-298.06003	124.66596	-509.31137	-352.29578	142.44307	-499.41202	-163.96167	524.66907	-377.29459	-254.4668	538.95984	-330.15689	-135.41403	884.41364	-603.18524	-379.86591	1118.4471	-451.17252	-260.49533	1003.3504	-75.227242	-340.60443	1070.2026	-102.33658	-269.57199	992.04303	340.48557	-348.71042	1053.837	335.99374
510	2.54	-298.62207	124.81247	-509.34537	-352.73807	142.33383	-499.63998	-165.34193	525.21149	-377.18143	-257.07861	539.75726	-331.30606	-133.74489	886.20117	-600.58643	-384.27734	1116.1675	-450.68054	-264.39612	998.09186	-74.991791	-348.51855	1062.4105	-102.20779	-268.22473	979.94055	338.52075	-350.59546	1037.3228	336.49884
511	2.545	-299.50504	124.74539	-509.216	-353.28494	142.29543	-499.7999	-166.41803	525.89929	-377.51541	-258.15323	540.17267	-332.18167	-132.46881	888.21863	-597.98901	-388.49841	1113.5403	-450.23987	-267.52567	992.98273	-75.076645	-355.60706	1054.9104	-102.00039	-265.85968	966.27045	337.30151	-352.44922	1020.1478	336.16431
512	2.55	-299.41089	125.01387	-509.59772	-353.71335	142.19196	-499.95193	-167.18648	526.67499	-378.0524	-258.99155	540.4292	-333.29797	-130.96011	890.55414	-595.74243	-392.78983	1111.2004	-449.92462	-269.90558	988.01056	-75.480515	-361.35504	1047.715	-101.46687	-263.00797	943.50452	306.13889	-355.53955	1001.9514	335.42847
513	2.555	-299.67264	125.0834	-509.74429	-353.96378	142.28224	-500.06812	-167.16843	527.40656	-378.98831	-259.68347	540.73468	-334.30295	-129.67793	892.93274	-593.54846	-397.02545	1108.7483	-449.6926	-273.02975	982.67834	-75.04998	-366.73251	1040.526	-99.822433	-266.28082	932.38953	319.87155	-359.22162	982.92261	334.37335
514	2.56	-299.65656	125.08561	-509.99326	-354.07336	142.26038	-500.10843	-166.88904	528.24323	-380.17429	-260.17105	540.97754	-335.2518	-128.42958	895.4903	-591.4129	-401.29315	1106.1786	-449.44351	-274.92038	977.03076	-75.956871	-370.789	1032.9712	-97.978989	-270.87225	919.36365	333.36621	-364.01657	963.16058	332.76562
515	2.565	-299.81815	124.87894	-509.90759	-353.84955	142.229	-500.28436	-167.22223	528.79211	-380.97424	-260.07993	541.30603	-336.21536	-127.15755	898.30756	-589.2204	-405.63391	1103.3538	-449.20328	-276.01074	971.32935	-77.493797	-373.59683	1025.0829	-96.235779	-274.73209	901.09955	330.39914	-369.49329	942.38068	330.42603
516	2.57	-298.86136	124.90086	-510.27267	-353.39594	142.1674	-500.53094	-167.90411	529.13037	-381.67401	-259.52274	541.27057	-337.53745	-125.65034	901.12396	-587.01239	-409.83701	1100.1069	-449.13678	-278.31317	965.07172	-78.624886	-374.99295	1017.3601	-95.217201	-280.83865	880.62207	327.82925	-375.48859	920.49084	327.19409
517	2.575	-298.07819	124.66414	-510.48404	-352.61365	141.94122	-500.88202	-167.55978	529.4494	-382.84579	-259.26569	541.26282	-338.01883	-124.41592	904.04059	-584.56696	-414.79379	1096.4645	-449.27689	-279.2926	959.21149	-80.791931	-376.47504	1009.7065	-94.454643	-286.72119	859.12231	325.46817	-382.17523	897.80188	323.11319
